<svg display="block" role="presentation" viewBox="0 0 20 20" xmlns="http://www.w3.org/2000/svg"><defs ><linearGradient id="VgkEm761s-2088071265-linear-gradient" x1="5.551115123125783e-17" x2="1" y1="0.48119255864642746" y2="0.5188074413535726"><stop offset="0" stop-color="rgb(96, 60, 255)"/><stop offset="1" stop-color="rgb(255, 131, 64)"/></linearGradient></defs><path d="M 9.286 0 C 7.449 0 5.654 0.545 4.127 1.565 C 2.6 2.585 1.41 4.035 0.707 5.732 C 0.004 7.429 -0.18 9.296 0.178 11.097 C 0.537 12.899 1.421 14.553 2.72 15.852 C 4.018 17.15 5.673 18.035 7.474 18.393 C 9.275 18.751 11.142 18.567 12.839 17.865 C 14.536 17.162 15.986 15.972 17.007 14.445 C 18.027 12.918 18.571 11.122 18.571 9.286 C 18.569 6.824 17.59 4.463 15.849 2.723 C 14.108 0.982 11.748 0.003 9.286 0 Z M 13.362 7.648 L 8.362 12.648 C 8.296 12.715 8.217 12.767 8.131 12.803 C 8.044 12.839 7.951 12.858 7.857 12.858 C 7.763 12.858 7.67 12.839 7.584 12.803 C 7.497 12.767 7.418 12.715 7.352 12.648 L 5.209 10.505 C 5.075 10.371 5 10.19 5 10 C 5 9.81 5.075 9.629 5.209 9.495 C 5.343 9.361 5.525 9.285 5.714 9.285 C 5.904 9.285 6.086 9.361 6.22 9.495 L 7.857 11.133 L 12.352 6.638 C 12.418 6.571 12.497 6.518 12.584 6.483 C 12.67 6.447 12.763 6.428 12.857 6.428 C 12.951 6.428 13.044 6.447 13.131 6.483 C 13.217 6.518 13.296 6.571 13.362 6.638 C 13.429 6.704 13.482 6.783 13.517 6.869 C 13.553 6.956 13.572 7.049 13.572 7.143 C 13.572 7.237 13.553 7.33 13.517 7.416 C 13.482 7.503 13.429 7.582 13.362 7.648 Z" fill="url(#VgkEm761s-2088071265-linear-gradient)" height="18.571429025410204px" id="VgkEm761s" transform="translate(0.714 0.714)" width="18.57142829865229px"/></svg>