<svg xmlns="http://www.w3.org/2000/svg" width="60" height="60" fill="none"><path fill="url(#a)" d="M27.333 6.788 16.462.444C16.023.19 15.446.061 14.868.061c-.577 0-1.155.128-1.593.383L2.403 6.788C1.527 7.3.81 8.55.81 9.568v12.71c0 1.017.717 2.267 1.593 2.779L13.275 31.4c.438.256 1.016.384 1.593.384.578 0 1.155-.128 1.594-.384l10.871-6.344c.877-.512 1.594-1.762 1.594-2.78V9.568c0-1.017-.717-2.267-1.594-2.779Z"/><path fill="url(#b)" d="M58.216 6.788 47.345.444C46.906.19 46.329.061 45.75.061c-.578 0-1.155.128-1.593.383L33.286 6.788c-.876.512-1.594 1.762-1.594 2.78v12.71c0 1.017.718 2.267 1.594 2.779L44.158 31.4c.438.256 1.015.384 1.593.384.578 0 1.155-.128 1.594-.384l10.871-6.344c.877-.512 1.594-1.762 1.594-2.78V9.568c0-1.017-.718-2.267-1.594-2.779Z"/><path fill="url(#c)" d="M42.998 34.07 31.91 27.703c-.44-.253-1.02-.379-1.6-.379-.58 0-1.16.126-1.6.379L17.62 34.07c-.88.505-1.6 1.75-1.6 2.767v12.711c0 1.017.72 2.262 1.6 2.767l11.089 6.367c.44.252 1.02.379 1.6.379.58 0 1.16-.127 1.6-.379L43 52.315c.879-.505 1.599-1.75 1.599-2.767v-12.71c0-1.017-.72-2.263-1.6-2.768Z"/><defs><linearGradient id="a" x1="8.803" x2="23.636" y1=".061" y2="30.478" gradientUnits="userSpaceOnUse"><stop stop-color="#fff"/><stop offset="1" stop-color="#FFADCB"/></linearGradient><linearGradient id="b" x1="39.686" x2="54.519" y1=".061" y2="30.478" gradientUnits="userSpaceOnUse"><stop stop-color="#fff"/><stop offset="1" stop-color="#FFADCB"/></linearGradient><linearGradient id="c" x1="24.145" x2="38.838" y1="27.324" y2="57.937" gradientUnits="userSpaceOnUse"><stop stop-color="#fff"/><stop offset="1" stop-color="#FFADCB"/></linearGradient></defs></svg>