<svg xmlns="http://www.w3.org/2000/svg" width="69" height="69" fill="none"><g clip-path="url(#a)"><path fill="url(#b)" d="m65.307 15.642-4.236-.072 1.256-4.047c.546-1.759-1.47-3.21-2.965-2.128l-8.817 6.378a1.929 1.929 0 0 0-.71.989l-1.826 5.883-10.886 7.875a5.706 5.706 0 0 0-2.35-.963 5.778 5.778 0 0 0-6.613 4.784 5.778 5.778 0 0 0 4.784 6.613 5.778 5.778 0 0 0 6.613-4.784 5.705 5.705 0 0 0-.18-2.533l10.887-7.875 6.16.106c.415.007.823-.121 1.16-.365l8.817-6.379c1.49-1.078.755-3.445-1.094-3.482Z"/><path fill="url(#c)" d="m50.449 30.377-6.984 5.052a9.59 9.59 0 0 1-.109 1.35c-.84 5.238-5.784 8.814-11.021 7.974-5.238-.84-8.814-5.785-7.974-11.022.84-5.237 5.785-8.813 11.022-7.973.454.073.89.187 1.317.32l6.983-5.053a17.179 17.179 0 0 0-7.08-2.865c-9.427-1.512-18.327 4.926-19.84 14.352-1.512 9.426 4.926 18.326 14.352 19.839 9.427 1.513 18.326-4.926 19.839-14.352a17.2 17.2 0 0 0-.505-7.622Z"/><path fill="url(#d)" d="m61.6 27.346-1.76 1.274a5.803 5.803 0 0 1-3.482 1.094l-2.107-.036c.778 2.827.997 5.852.503 8.93-1.85 11.522-12.726 19.39-24.247 17.542-11.522-1.85-19.39-12.727-17.542-24.248 1.85-11.52 12.727-19.39 24.248-17.54a21.005 21.005 0 0 1 8.324 3.27l.625-2.012a5.808 5.808 0 0 1 2.13-2.965l1.76-1.273a28.675 28.675 0 0 0-11.62-4.619C22.72 4.242 7.888 14.973 5.366 30.683c-2.52 15.71 8.21 30.543 23.92 33.065 15.711 2.52 30.544-8.21 33.065-23.92a28.676 28.676 0 0 0-.75-12.482Z"/></g><defs><linearGradient id="b" x1="43.017" x2="52.653" y1="6.196" y2="44.117" gradientUnits="userSpaceOnUse"><stop stop-color="#fff"/><stop offset="1" stop-color="#FFADCB"/></linearGradient><linearGradient id="c" x1="29.227" x2="38.517" y1="16.977" y2="53.539" gradientUnits="userSpaceOnUse"><stop stop-color="#fff"/><stop offset="1" stop-color="#FFADCB"/></linearGradient><linearGradient id="d" x1="26.139" x2="41.623" y1="4.791" y2="65.727" gradientUnits="userSpaceOnUse"><stop stop-color="#fff"/><stop offset="1" stop-color="#FFADCB"/></linearGradient><clipPath id="a"><path fill="#fff" d="m10.142.92 58.255 9.349-9.349 58.255L.794 59.175z"/></clipPath></defs></svg>