<svg xmlns="http://www.w3.org/2000/svg" width="59" height="61" fill="none"><path fill="url(#a)" fill-rule="evenodd" d="M13.771 56.284C6.473 55.579.661 49.535.446 42.026.213 33.9 6.618 27.114 14.746 26.86l.779-2.758a2.104 2.104 0 0 1 1.969-1.537l27.677-.794a2.106 2.106 0 0 1 2.089 2.675l-1.591 5.663c5.181-.797 9.085-5.349 8.93-10.717-.145-5.092-3.892-9.24-8.73-10.079l.054 1.896c.1 3.491-2.65 6.4-6.145 6.5l-21.087.605a6.323 6.323 0 0 1-6.507-6.137l-.121-4.212a6.323 6.323 0 0 1 6.145-6.5L39.295.858a6.332 6.332 0 0 1 6.128 4.148c7.33.67 13.178 6.729 13.394 14.264.234 8.136-6.193 14.934-14.337 15.168h-.032l-.778 2.758a2.104 2.104 0 0 1-1.97 1.537l-27.676.795a2.115 2.115 0 0 1-1.725-.81 2.108 2.108 0 0 1-.365-1.866l1.59-5.652c-5.144.827-9.014 5.36-8.86 10.704.145 5.066 3.857 9.2 8.662 10.065l-.055-1.88a6.323 6.323 0 0 1 6.145-6.5l21.087-.605a6.324 6.324 0 0 1 6.508 6.137l.12 4.213c.1 3.49-2.649 6.4-6.144 6.5L19.9 60.44a6.326 6.326 0 0 1-6.129-4.156Z" clip-rule="evenodd"/><defs><linearGradient id="a" x1="16.064" x2="43.245" y1="1.526" y2="59.77" gradientUnits="userSpaceOnUse"><stop stop-color="#fff"/><stop offset="1" stop-color="#FFADCB"/></linearGradient></defs></svg>