<svg xmlns="http://www.w3.org/2000/svg" width="58" height="59" fill="none"><g filter="url(#a)"><rect width="56" height="56" x="1" y="1.5" fill="url(#b)" rx="28"/><rect width="56" height="56" x="1" y="1.5" fill="url(#c)" fill-opacity=".4" rx="28"/><rect width="56" height="56" x="1" y="1.5" fill="url(#d)" fill-opacity=".1" rx="28"/><rect width="56.824" height="56.824" x=".588" y="1.088" stroke="url(#e)" stroke-opacity=".8" stroke-width=".824" rx="28.412"/><path fill="#fff" d="M26.723 38.289c.226-1.015.859-2.684 2.006-4.245l.4-.514c.977-1.181 2.25-2.219 3.857-2.806l.471-.173v-2.102l-.471-.173c-1.608-.587-2.878-1.625-3.855-2.806l-.402-.514c-1.147-1.56-1.78-3.23-2.006-4.245L26.566 20l-2.023.476.154.695c.286 1.282 1.035 3.224 2.366 5.035l.397.516a12.307 12.307 0 0 0 1.709 1.73l.936.93c-.647.535-2.151 2.288-2.645 2.896l-.397.516c-1.331 1.81-2.08 3.754-2.366 5.036l-.154.694 2.023.476.157-.711Z"/></g><defs><linearGradient id="b" x1="29" x2="29" y1="1.5" y2="57.5" gradientUnits="userSpaceOnUse"><stop stop-color="#6D6D6D"/><stop offset="1" stop-color="#171717"/></linearGradient><linearGradient id="c" x1="19.603" x2="-7.699" y1="11.417" y2="14.803" gradientUnits="userSpaceOnUse"><stop stop-color="#767676" stop-opacity="0"/><stop offset="1"/></linearGradient><linearGradient id="d" x1="28.041" x2="40.169" y1="13.75" y2="20.471" gradientUnits="userSpaceOnUse"><stop stop-color="#1D1D1D" stop-opacity="0"/><stop offset="1" stop-color="#1D1D1D"/></linearGradient><linearGradient id="e" x1="-51.706" x2=".061" y1="-54.5" y2="74.699" gradientUnits="userSpaceOnUse"><stop stop-color="#EBEBEB"/><stop offset="1" stop-color="#1D1D1D"/></linearGradient><filter id="a" width="64.235" height="65.883" x="-3.118" y="-4.265" color-interpolation-filters="sRGB" filterUnits="userSpaceOnUse"><feFlood flood-opacity="0" result="BackgroundImageFix"/><feBlend in="SourceGraphic" in2="BackgroundImageFix" result="shape"/><feColorMatrix in="SourceAlpha" result="hardAlpha" values="0 0 0 0 0 0 0 0 0 0 0 0 0 0 0 0 0 0 127 0"/><feOffset dx="3.294" dy="3.294"/><feGaussianBlur stdDeviation="4.118"/><feComposite in2="hardAlpha" k2="-1" k3="1" operator="arithmetic"/><feColorMatrix values="0 0 0 0 0.113725 0 0 0 0 0.113725 0 0 0 0 0.113725 0 0 0 0.24 0"/><feBlend in2="shape" result="effect1_innerShadow_241_1395"/><feColorMatrix in="SourceAlpha" result="hardAlpha" values="0 0 0 0 0 0 0 0 0 0 0 0 0 0 0 0 0 0 127 0"/><feOffset dx="-3.294" dy="-4.941"/><feGaussianBlur stdDeviation="10.294"/><feComposite in2="hardAlpha" k2="-1" k3="1" operator="arithmetic"/><feColorMatrix values="0 0 0 0 0.788462 0 0 0 0 0.788462 0 0 0 0 0.788462 0 0 0 0.08 0"/><feBlend in2="effect1_innerShadow_241_1395" result="effect2_innerShadow_241_1395"/></filter></defs></svg>